<?xml version="1.0" encoding="UTF-8" standalone="no"?>
<svg
 xmlns:dc="http://purl.org/dc/elements/1.1/"
 xmlns:cc="http://creativecommons.org/ns#"
 xmlns:rdf="http://www.w3.org/1999/02/22-rdf-syntax-ns#"
 xmlns:svg="http://www.w3.org/2000/svg"
 xmlns="http://www.w3.org/2000/svg"
 xmlns:sodipodi="http://sodipodi.sourceforge.net/DTD/sodipodi-0.dtd"
 xmlns:inkscape="http://www.inkscape.org/namespaces/inkscape"
 id="Calque_1"
 data-name="Calque 1"
 viewBox="0 0 259.95 75.000001"
 version="1.1"
 sodipodi:docname="LogoPourFondGris.svg"
 inkscape:version="0.92.3 (2405546, 2018-03-11)"
 width="259.95001"
 height="75">
<metadata
 id="metadata163">
<rdf:RDF>
<cc:Work
 rdf:about="">
<dc:format>image/svg+xml</dc:format>
<dc:type
 rdf:resource="http://purl.org/dc/dcmitype/StillImage" />
<dc:title>LogoFondGris</dc:title>
</cc:Work>
</rdf:RDF>
</metadata>
<sodipodi:namedview
 pagecolor="#ffffff"
 bordercolor="#666666"
 borderopacity="1"
 objecttolerance="10"
 gridtolerance="10"
 guidetolerance="10"
 inkscape:pageopacity="0"
 inkscape:pageshadow="2"
 inkscape:window-width="2560"
 inkscape:window-height="1377"
 id="namedview161"
 showgrid="false"
 inkscape:zoom="7.9630694"
 inkscape:cx="129.97501"
 inkscape:cy="46.605"
 inkscape:window-x="-8"
 inkscape:window-y="-8"
 inkscape:window-maximized="1"
 inkscape:current-layer="Calque_1" />
<defs
 id="defs4">
<style
 id="style2">.cls-1{fill:#1e1e1e;}.cls-2{fill:#b7b7b7;}.cls-3{fill:#6bbe46;}.cls-4{fill:#6dbd46;}</style>
</defs>
<title
 id="title6">LogoFondGris</title>
<path
 class="cls-2"
 d="m 72.42442,64.428824 v 5.0544 h -0.3672 v -5.0544 z"
 id="path10"
 inkscape:connector-curvature="0"
 style="fill:#b7b7b7;stroke-width:1.08000004" />
<path
 class="cls-2"
 d="m 80.81602,69.483224 v -5.0544 h 0.4752 l 3.4344,4.428 v -4.428 h 0.3348 v 5.0544 h -0.3348 l -3.5748,-4.644 v 4.644 z"
 id="path12"
 inkscape:connector-curvature="0"
 style="fill:#b7b7b7;stroke-width:1.08000004" />
<path
 class="cls-2"
 d="m 96.53002,64.428824 v 0.3132 h -2.9484 v 2.0196 h 2.8296 v 0.3132 h -2.8296 v 2.4084 h -0.3672 v -5.0544 z"
 id="path14"
 inkscape:connector-curvature="0"
 style="fill:#b7b7b7;stroke-width:1.08000004" />
<path
 class="cls-2"
 d="m 104.26282,66.999224 a 2.5272,2.5272 0 1 1 5.0436,0 2.5272,2.5272 0 1 1 -5.0436,0 z m 2.538,2.16 c 1.3932,0 2.0952,-0.756 2.0952,-2.2572 0,-1.5012 -0.702,-2.2356 -2.0952,-2.2356 -1.3932,0 -2.16,0.7452 -2.16,2.2356 0,1.4904 0.7344,2.2572 2.16,2.2572 z"
 id="path16"
 inkscape:connector-curvature="0"
 style="fill:#b7b7b7;stroke-width:1.08000004" />
<path
 class="cls-2"
 d="m 117.33082,69.483224 v -5.0544 h 2.0844 c 0.918,0 1.3824,0.3996 1.3824,1.2096 0,0.81 -0.4968,1.1988 -1.4904,1.4904 l 1.7064,2.3544 h -0.5076 l -1.6848,-2.3436 v -0.2484 c 1.08,-0.1512 1.5552,-0.5616 1.5552,-1.2204 0,-0.6588 -0.3348,-0.918 -1.0152,-0.918 h -1.6524 v 4.7304 z"
 id="path18"
 inkscape:connector-curvature="0"
 style="fill:#b7b7b7;stroke-width:1.08000004" />
<path
 class="cls-2"
 d="m 128.77882,69.483224 v -5.0544 h 0.3672 l 2.2788,4.6224 2.16,-4.6224 h 0.3348 v 5.0544 h -0.3348 v -4.32 l -2.0088,4.32 h -0.3132 l -2.16,-4.4064 v 4.4064 z"
 id="path20"
 inkscape:connector-curvature="0"
 style="fill:#b7b7b7;stroke-width:1.08000004" />
<path
 class="cls-2"
 d="m 142.06282,69.483224 h -0.3888 l 2.2896,-5.0544 h 0.4428 l 2.3004,5.0544 h -0.4212 l -0.756,-1.6956 h -2.16 l 0.1512,-0.3132 h 1.836 l -1.2312,-2.754 z"
 id="path22"
 inkscape:connector-curvature="0"
 style="fill:#b7b7b7;stroke-width:1.08000004" />
<path
 class="cls-2"
 d="m 157.74442,64.428824 v 0.3132 h -1.7388 v 4.7412 h -0.3672 v -4.7412 h -1.7064 v -0.3132 z"
 id="path24"
 inkscape:connector-curvature="0"
 style="fill:#b7b7b7;stroke-width:1.08000004" />
<path
 class="cls-2"
 d="m 165.96322,64.428824 v 5.0544 h -0.3672 v -5.0544 z"
 id="path26"
 inkscape:connector-curvature="0"
 style="fill:#b7b7b7;stroke-width:1.08000004" />
<path
 class="cls-2"
 d="m 174.17122,66.999224 a 2.5272,2.5272 0 1 1 5.0436,0 2.2896,2.2896 0 0 1 -1.89,2.5272 l 0.918,1.08 -0.324,0.2484 -1.08,-1.2852 c -1.782,-0.054 -2.6676,-0.8964 -2.6676,-2.5704 z m 2.538,2.16 c 1.3932,0 2.0952,-0.7452 2.0952,-2.2248 0,-1.4796 -0.702,-2.2356 -2.0952,-2.2356 -1.3932,0 -2.16,0.7452 -2.16,2.2356 0,1.4904 0.7452,2.2248 2.16,2.2248 z"
 id="path28"
 inkscape:connector-curvature="0"
 style="fill:#b7b7b7;stroke-width:1.08000004" />
<path
 class="cls-2"
 d="m 187.23922,67.528424 v -3.0996 h 0.378 v 3.0996 a 1.6632,1.6632 0 1 0 3.3264,0 v -3.0996 h 0.3672 v 3.0996 a 2.0412,2.0412 0 0 1 -4.0716,0 z"
 id="path30"
 inkscape:connector-curvature="0"
 style="fill:#b7b7b7;stroke-width:1.08000004" />
<path
 class="cls-2"
 d="m 202.84522,64.428824 v 0.3132 h -2.9592 v 2.0196 h 2.8296 v 0.3132 h -2.8296 v 2.0844 h 3.0024 v 0.3132 h -3.3696 v -5.0436 z"
 id="path32"
 inkscape:connector-curvature="0"
 style="fill:#b7b7b7;stroke-width:1.08000004" />
<path
 class="cls-2"
 d="m 216.28042,69.310424 v -0.3888 a 5.3028,5.3028 0 0 0 1.7496,0.2808 q 1.5876,0 1.5876,-1.1988 c 0,-0.594 -0.3456,-0.8856 -1.08,-0.8856 h -1.08 c -0.9396,0 -1.404,-0.432 -1.404,-1.2744 0,-0.8424 0.6912,-1.4472 2.0628,-1.4472 a 6.48,6.48 0 0 1 1.6524,0.2052 v 0.3564 a 5.67,5.67 0 0 0 -1.6524,-0.2484 c -1.134,0 -1.6956,0.378 -1.6956,1.134 0,0.756 0.3456,0.918 1.08,0.918 h 1.08 c 0.9288,0 1.404,0.4104 1.404,1.242 0,1.0152 -0.6588,1.512 -1.9656,1.512 a 6.8256,6.8256 0 0 1 -1.7388,-0.2052 z"
 id="path34"
 inkscape:connector-curvature="0"
 style="fill:#b7b7b7;stroke-width:1.08000004" />
<path
 class="cls-2"
 d="m 227.97682,69.483224 h -0.3996 l 2.2896,-5.0544 h 0.4428 l 2.3004,5.0544 h -0.4428 l -0.7452,-1.6956 h -2.16 l 0.1404,-0.3132 h 1.8468 l -1.2096,-2.754 z"
 id="path36"
 inkscape:connector-curvature="0"
 style="fill:#b7b7b7;stroke-width:1.08000004" />
<path
 class="cls-2"
 d="m 242.14642,69.483224 v -5.0544 h 2.0844 c 0.918,0 1.3716,0.3996 1.3716,1.2096 0,0.81 -0.4968,1.1988 -1.4904,1.4904 l 1.7172,2.3544 h -0.5184 l -1.674,-2.3436 v -0.2484 c 1.08,-0.1512 1.5552,-0.5616 1.5552,-1.2204 0,-0.6588 -0.3456,-0.918 -1.0152,-0.918 h -1.6632 v 4.7304 z"
 id="path38"
 inkscape:connector-curvature="0"
 style="fill:#b7b7b7;stroke-width:1.08000004" />
<path
 class="cls-2"
 d="m 255.73282,64.428824 v 4.7304 h 2.9268 v 0.3132 h -3.294 v -5.0436 z"
 id="path40"
 inkscape:connector-curvature="0"
 style="fill:#b7b7b7;stroke-width:1.08000004" />
<ellipse
 class="cls-3"
 cx="165.35841"
 cy="59.806427"
 rx="93.322807"
 ry="1.0368"
 id="ellipse42"
 style="fill:#6bbe46;stroke-width:1.08000004" />
<path
 class="cls-4"
 d="m 54.97162,43.379624 c -0.0972,-0.2376 -0.1944,-0.486 -0.2808,-0.7344 v 0.7344 z"
 id="path44"
 inkscape:connector-curvature="0"
 style="fill:#6dbd46;stroke-width:1.08000004" />
<path
 class="cls-4"
 d="m 19.86082,6.7244244 h -1.0152 v -0.7452 l -1.08,0.6372 v 0.108 h -0.162 c -0.5076,0.324 -1.0152,0.6588001 -1.5012,1.0044001 h 4.32 a 0.4752,0.4752 0 0 0 0.5184,-0.5076001 v -2.3436 c -0.3456,0.1728 -0.702,0.3456 -1.08,0.54 z"
 id="path46"
 inkscape:connector-curvature="0"
 style="fill:#6dbd46;stroke-width:1.08000004" />
<path
 class="cls-4"
 d="m 27.48562,6.7244244 h -3.1428 v -3.3372 l -1.08,0.3996 v 2.9376 a 1.0152,1.0152 0 0 0 1.08,1.0152001 h 3.1428 a 1.0152,1.0152 0 0 0 1.08,-1.0152001 v -4.6224 l -1.08,0.2808 z"
 id="path48"
 inkscape:connector-curvature="0"
 style="fill:#6dbd46;stroke-width:1.08000004" />
<path
 class="cls-4"
 d="m 35.56402,4.1540244 a 0.4644,0.4644 0 0 0 -0.5292,0.5184 v 2.052 h -1.0692 v -5.5404 l -1.08,0.1188 v 5.4 h -1.4796 a 0.50760005,0.50760005 0 1 0 0,1.0152001 h 4.158 a 0.4752,0.4752 0 0 0 0.5184,-0.5076001 v -2.538 a 0.4536,0.4536 0 0 0 -0.5184,-0.5184 z"
 id="path50"
 inkscape:connector-curvature="0"
 style="fill:#6dbd46;stroke-width:1.08000004" />
<path
 class="cls-4"
 d="m 43.14562,4.1540244 a 0.4644,0.4644 0 0 0 -0.5292,0.5184 v 2.052 h -1.026 v -5.4648 l -1.08,-0.0972 v 5.562 h -1.5228 a 0.50760005,0.50760005 0 1 0 0,1.0152001 h 4.158 a 0.4752,0.4752 0 0 0 0.5292,-0.5076001 v -2.5596 a 0.4644,0.4644 0 0 0 -0.5292,-0.5184 z"
 id="path52"
 inkscape:connector-curvature="0"
 style="fill:#6dbd46;stroke-width:1.08000004" />
<path
 class="cls-4"
 d="m 50.16562,6.7244244 h -3.0564 v -4.428 l -1.08,-0.27 v 4.698 a 1.0152,1.0152 0 0 0 1.08,1.0152001 h 3.0564 a 1.0152,1.0152 0 0 0 1.08,-1.0152001 v -3.0564 l -1.08,-0.3888 z"
 id="path54"
 inkscape:connector-curvature="0"
 style="fill:#6dbd46;stroke-width:1.08000004" />
<path
 class="cls-4"
 d="m 54.69082,7.7396245 h 3.0996 a 1.08,1.08 0 0 0 0.6588,-0.2268 c -0.3888,-0.2700001 -0.7776,-0.5292001 -1.188,-0.7884001 h -2.5704 v -1.4904 c -0.3456,-0.1836 -0.702,-0.3456 -1.08,-0.5184 v 2.0088 a 1.0152,1.0152 0 0 0 1.08,1.0152001 z"
 id="path56"
 inkscape:connector-curvature="0"
 style="fill:#6dbd46;stroke-width:1.08000004" />
<path
 class="cls-4"
 d="m 5.2160203,19.965224 a 0.4752,0.4752 0 0 0 0.5184,-0.5076 v -0.4536 l -0.5292,0.9612 z"
 id="path58"
 inkscape:connector-curvature="0"
 style="fill:#6dbd46;stroke-width:1.08000004" />
<path
 class="cls-4"
 d="m 12.26842,12.038024 h -1.2312 c -0.324,0.3348 -0.6372,0.6696 -0.9504,1.0152 h 2.16 v 5.886 H 9.1256203 v -4.86 c -0.3564,0.432 -0.7128,0.8748 -1.08,1.3284 v 3.5316 a 1.08,1.08 0 0 0 1.08,1.026 H 12.22522 a 1.08,1.08 0 0 0 1.08,-1.026 v -5.886 a 1.08,1.08 0 0 0 -1.0368,-1.0152 z"
 id="path60"
 inkscape:connector-curvature="0"
 style="fill:#6dbd46;stroke-width:1.08000004" />
<path
 class="cls-4"
 d="m 20.39002,16.379624 c -0.3996,0 -0.5292,0.216 -0.5292,0.5076 v 2.052 h -1.0152 v -6.9012 h -2.6136 a 0.5076,0.5076 0 1 0 0,1.0152 h 1.5336 v 5.886 h -1.5336 a 0.486,0.486 0 0 0 -0.5292,0.5184 0.4752,0.4752 0 0 0 0.5292,0.5076 h 4.158 a 0.4752,0.4752 0 0 0 0.5184,-0.5076 v -2.5704 a 0.4536,0.4536 0 0 0 -0.5184,-0.5076 z"
 id="path62"
 inkscape:connector-curvature="0"
 style="fill:#6dbd46;stroke-width:1.08000004" />
<path
 class="cls-4"
 d="m 27.97162,16.379624 a 0.4644,0.4644 0 0 0 -0.5292,0.5076 v 2.052 h -1.0368 v -6.9012 h -2.592 a 0.5076,0.5076 0 1 0 0,1.0152 h 1.512 v 5.886 h -1.512 a 0.486,0.486 0 0 0 -0.5184,0.5184 0.4752,0.4752 0 0 0 0.5184,0.5076 h 4.158 a 0.4752,0.4752 0 0 0 0.5292,-0.5076 v -2.5704 a 0.4644,0.4644 0 0 0 -0.5292,-0.5076 z"
 id="path64"
 inkscape:connector-curvature="0"
 style="fill:#6dbd46;stroke-width:1.08000004" />
<path
 class="cls-4"
 d="m 35.04562,12.038024 h -3.1104 a 1.08,1.08 0 0 0 -1.08,1.0152 v 5.886 a 1.08,1.08 0 0 0 1.08,1.026 h 3.1104 a 1.08,1.08 0 0 0 1.08,-1.026 v -5.886 a 1.08,1.08 0 0 0 -1.08,-1.0152 z m 0,6.9012 h -3.1104 v -5.886 h 3.1104 z"
 id="path66"
 inkscape:connector-curvature="0"
 style="fill:#6dbd46;stroke-width:1.08000004" />
<path
 class="cls-4"
 d="m 43.14562,16.379624 a 0.4644,0.4644 0 0 0 -0.5292,0.5076 v 2.052 h -1.026 v -6.9012 h -2.6028 a 0.5076,0.5076 0 1 0 0,1.0152 h 1.5552 v 5.886 h -1.5552 a 0.486,0.486 0 0 0 -0.5184,0.5184 0.4752,0.4752 0 0 0 0.5184,0.5076 h 4.158 a 0.4752,0.4752 0 0 0 0.54,-0.486 v -2.592 a 0.4644,0.4644 0 0 0 -0.54,-0.5076 z"
 id="path68"
 inkscape:connector-curvature="0"
 style="fill:#6dbd46;stroke-width:1.08000004" />
<path
 class="cls-4"
 d="m 50.72722,16.379624 a 0.4536,0.4536 0 0 0 -0.5184,0.5076 v 2.052 h -1.026 v -6.9012 h -2.6028 a 0.5076,0.5076 0 1 0 0,1.0152 h 1.5444 v 5.886 h -1.5444 a 0.486,0.486 0 0 0 -0.5292,0.5184 0.4752,0.4752 0 0 0 0.5292,0.5076 h 4.1472 a 0.4752,0.4752 0 0 0 0.5184,-0.486 v -2.592 c 0,-0.2916 -0.1188,-0.5076 -0.5184,-0.5076 z"
 id="path70"
 inkscape:connector-curvature="0"
 style="fill:#6dbd46;stroke-width:1.08000004" />
<path
 class="cls-4"
 d="m 54.69082,19.965224 h 3.0996 a 1.08,1.08 0 0 0 1.08,-1.026 v -5.886 a 1.08,1.08 0 0 0 -1.08,-1.0152 h -3.0996 a 1.08,1.08 0 0 0 -1.08,1.0152 v 5.886 a 1.08,1.08 0 0 0 1.08,1.026 z m 0,-6.912 h 3.0996 v 5.886 h -3.0996 z"
 id="path72"
 inkscape:connector-curvature="0"
 style="fill:#6dbd46;stroke-width:1.08000004" />
<path
 class="cls-4"
 d="m 66.43042,14.997224 c -0.3456,-0.4428 -0.6912,-0.8748 -1.08,-1.296 v 5.238 h -3.078 v -5.886 h 2.5164 c -0.3024,-0.3456 -0.6264,-0.6804 -0.9504,-1.0152 h -1.566 a 1.08,1.08 0 0 0 -1.08,1.0152 v 5.886 a 1.08,1.08 0 0 0 1.08,1.026 h 1.1556 a 19.44,19.44 0 0 1 3.0024,-1.3932 z"
 id="path74"
 inkscape:connector-curvature="0"
 style="fill:#6dbd46;stroke-width:1.08000004" />
<path
 class="cls-4"
 d="m 5.2160203,28.594424 a 0.4644,0.4644 0 0 0 -0.5292,0.5076 v 2.0628 h -1.08 v -6.912 h -0.3996 q -0.3564,0.9504 -0.648,1.944 v 4.968 h -1.08 l -0.1296,1.0152 h 3.8556 a 0.4752,0.4752 0 0 0 0.5184,-0.5076 v -2.5704 a 0.4536,0.4536 0 0 0 -0.5076,-0.5076 z"
 id="path76"
 inkscape:connector-curvature="0"
 style="fill:#6dbd46;stroke-width:1.08000004" />
<path
 class="cls-4"
 d="M 12.26842,24.252824 H 9.1256203 a 1.08,1.08 0 0 0 -1.08,1.026 v 5.886 a 1.0152,1.0152 0 0 0 1.08,1.0152 H 12.22522 a 1.0152,1.0152 0 0 0 1.08,-1.0152 v -5.886 a 1.08,1.08 0 0 0 -1.0368,-1.026 z m 0,6.912 H 9.1256203 v -5.886 H 12.22522 Z"
 id="path78"
 inkscape:connector-curvature="0"
 style="fill:#6dbd46;stroke-width:1.08000004" />
<path
 class="cls-4"
 d="m 19.86082,24.252824 h -3.0996 a 1.08,1.08 0 0 0 -1.08,1.026 v 5.886 a 1.0152,1.0152 0 0 0 1.08,1.0152 h 3.0996 a 1.0152,1.0152 0 0 0 1.08,-1.0152 v -5.886 a 1.08,1.08 0 0 0 -1.08,-1.026 z m 0,6.912 h -3.0996 v -5.886 h 3.0996 z"
 id="path80"
 inkscape:connector-curvature="0"
 style="fill:#6dbd46;stroke-width:1.08000004" />
<path
 class="cls-4"
 d="m 27.97162,28.594424 a 0.4644,0.4644 0 0 0 -0.5292,0.5076 v 2.0628 h -1.0368 v -6.912 h -2.592 a 0.4752,0.4752 0 0 0 -0.5184,0.5076 0.486,0.486 0 0 0 0.5184,0.5184 h 1.512 v 5.886 h -1.512 a 0.5076,0.5076 0 1 0 0,1.0152 h 4.158 a 0.4752,0.4752 0 0 0 0.5292,-0.5076 v -2.5704 a 0.4644,0.4644 0 0 0 -0.5292,-0.5076 z"
 id="path82"
 inkscape:connector-curvature="0"
 style="fill:#6dbd46;stroke-width:1.08000004" />
<path
 class="cls-4"
 d="m 35.04562,24.252824 h -3.1104 a 1.08,1.08 0 0 0 -1.08,1.026 v 5.886 a 1.0152,1.0152 0 0 0 1.08,1.0152 h 3.1104 a 1.0152,1.0152 0 0 0 1.08,-1.0152 v -5.886 a 1.08,1.08 0 0 0 -1.08,-1.026 z m 0,6.912 h -3.1104 v -5.886 h 3.1104 z"
 id="path84"
 inkscape:connector-curvature="0"
 style="fill:#6dbd46;stroke-width:1.08000004" />
<path
 class="cls-4"
 d="m 42.60562,24.252824 h -3.0888 a 1.08,1.08 0 0 0 -1.08,1.026 v 5.886 a 1.0152,1.0152 0 0 0 1.08,1.0152 h 3.0888 a 1.0152,1.0152 0 0 0 1.08,-1.0152 v -5.886 a 1.08,1.08 0 0 0 -1.08,-1.026 z m 0,6.912 h -3.0888 v -5.886 h 3.0888 z"
 id="path86"
 inkscape:connector-curvature="0"
 style="fill:#6dbd46;stroke-width:1.08000004" />
<path
 class="cls-4"
 d="m 50.16562,24.252824 h -3.0564 a 1.08,1.08 0 0 0 -1.08,1.026 v 5.886 a 1.0152,1.0152 0 0 0 1.08,1.0152 h 3.0564 a 1.0152,1.0152 0 0 0 1.08,-1.0152 v -5.886 a 1.08,1.08 0 0 0 -1.08,-1.026 z m 0,6.912 h -3.0564 v -5.886 h 3.0564 z"
 id="path88"
 inkscape:connector-curvature="0"
 style="fill:#6dbd46;stroke-width:1.08000004" />
<path
 class="cls-4"
 d="m 56.76442,24.252824 h -2.6028 a 0.4752,0.4752 0 0 0 -0.5292,0.5076 0.486,0.486 0 0 0 0.5292,0.5184 h 1.5552 v 2.6568 a 17.28,17.28 0 0 1 1.08,-1.7928 z"
 id="path90"
 inkscape:connector-curvature="0"
 style="fill:#6dbd46;stroke-width:1.08000004" />
<path
 class="cls-4"
 d="m 54.16162,31.164824 a 0.4752,0.4752 0 0 0 -0.5292,0.5076 0.4752,0.4752 0 0 0 0.5076,0.5076 c 0.0756,-0.3456 0.1728,-0.6804 0.27,-1.0152 z"
 id="path92"
 inkscape:connector-curvature="0"
 style="fill:#6dbd46;stroke-width:1.08000004" />
<path
 class="cls-4"
 d="m 4.6868203,36.478424 h -3.1212 a 1.08,1.08 0 0 0 -0.4536,0.0972 34.398,34.398 0 0 0 0.4536,5.0976 v -4.1796 h 3.0996 v 5.886 h -2.754 c 0.0756,0.3456 0.162,0.6804 0.2376,1.0152 h 2.538 a 1.0044,1.0044 0 0 0 1.08,-1.0152 v -5.886 a 1.08,1.08 0 0 0 -1.08,-1.0152 z"
 id="path94"
 inkscape:connector-curvature="0"
 style="fill:#6dbd46;stroke-width:1.08000004" />
<path
 class="cls-4"
 d="m 12.79762,40.809224 a 0.4644,0.4644 0 0 0 -0.5292,0.5184 v 2.052 h -0.9828 v -6.9012 H 8.6396203 a 0.5076,0.5076 0 1 0 0,1.0152 H 10.20562 v 5.886 H 8.6396203 a 0.5076,0.5076 0 1 0 0,1.0152 H 12.79762 a 0.4752,0.4752 0 0 0 0.5292,-0.5076 v -2.5596 a 0.4644,0.4644 0 0 0 -0.5292,-0.5184 z"
 id="path96"
 inkscape:connector-curvature="0"
 style="fill:#6dbd46;stroke-width:1.08000004" />
<path
 class="cls-4"
 d="m 19.86082,36.478424 h -3.0996 a 1.08,1.08 0 0 0 -1.08,1.0152 v 5.886 a 1.0152,1.0152 0 0 0 1.08,1.0152 h 3.0996 a 1.0152,1.0152 0 0 0 1.08,-1.0152 v -5.886 a 1.08,1.08 0 0 0 -1.08,-1.0152 z m 0,6.9012 h -3.0996 v -5.886 h 3.0996 z"
 id="path98"
 inkscape:connector-curvature="0"
 style="fill:#6dbd46;stroke-width:1.08000004" />
<path
 class="cls-4"
 d="m 27.48562,36.478424 h -3.1428 a 1.08,1.08 0 0 0 -1.08,1.0152 v 5.886 a 1.0152,1.0152 0 0 0 1.08,1.0152 h 3.1428 a 1.0152,1.0152 0 0 0 1.08,-1.0152 v -5.886 a 1.08,1.08 0 0 0 -1.08,-1.0152 z m 0,6.9012 h -3.1428 v -5.886 h 3.1428 z"
 id="path100"
 inkscape:connector-curvature="0"
 style="fill:#6dbd46;stroke-width:1.08000004" />
<path
 class="cls-4"
 d="m 35.04562,36.478424 h -3.1104 a 1.08,1.08 0 0 0 -1.08,1.0152 v 5.886 a 1.0152,1.0152 0 0 0 1.08,1.0152 h 3.1104 a 1.0152,1.0152 0 0 0 1.08,-1.0152 v -5.886 a 1.08,1.08 0 0 0 -1.08,-1.0152 z m 0,6.9012 h -3.1104 v -5.886 h 3.1104 z"
 id="path102"
 inkscape:connector-curvature="0"
 style="fill:#6dbd46;stroke-width:1.08000004" />
<path
 class="cls-4"
 d="m 43.14562,40.809224 a 0.4644,0.4644 0 0 0 -0.5292,0.5184 v 2.052 h -1.026 v -6.9012 h -2.6028 a 0.5076,0.5076 0 1 0 0,1.0152 h 1.5552 v 5.886 h -1.5552 a 0.5076,0.5076 0 1 0 0,1.0152 h 4.158 a 0.4752,0.4752 0 0 0 0.54,-0.5076 v -2.5596 a 0.4644,0.4644 0 0 0 -0.54,-0.5184 z"
 id="path104"
 inkscape:connector-curvature="0"
 style="fill:#6dbd46;stroke-width:1.08000004" />
<path
 class="cls-4"
 d="m 50.16562,36.478424 h -3.0564 a 1.08,1.08 0 0 0 -1.08,1.0152 v 5.886 a 1.0152,1.0152 0 0 0 1.08,1.0152 h 3.0564 a 1.0152,1.0152 0 0 0 1.08,-1.0152 v -5.886 a 1.08,1.08 0 0 0 -1.08,-1.0152 z m 0,6.9012 h -3.0564 v -5.886 h 3.0564 z"
 id="path106"
 inkscape:connector-curvature="0"
 style="fill:#6dbd46;stroke-width:1.08000004" />
<path
 class="cls-4"
 d="m 54.69082,43.379624 v -0.7344 a 18.7164,18.7164 0 0 1 -1.08,-5.238 c 0,0 0,0 0,0.0864 v 5.886 a 1.0152,1.0152 0 0 0 1.08,1.0152 h 0.7236 c -0.162,-0.3348 -0.3132,-0.6696 -0.4428,-1.0152 z"
 id="path108"
 inkscape:connector-curvature="0"
 style="fill:#6dbd46;stroke-width:1.08000004" />
<path
 class="cls-4"
 d="m 4.6868203,48.693224 h -1.1448 c 0.1296,0.3348 0.27,0.6804 0.4104,1.0152 h 0.7344 v 1.566 c 0.324,0.6696 0.6804,1.3176 1.08,1.9548 v -3.51 a 1.08,1.08 0 0 0 -1.08,-1.026 z"
 id="path110"
 inkscape:connector-curvature="0"
 style="fill:#6dbd46;stroke-width:1.08000004" />
<path
 class="cls-4"
 d="m 12.79762,53.034824 c -0.3888,0 -0.5292,0.2052 -0.5292,0.5076 v 2.052 h -0.9828 v -6.9012 H 8.6396203 a 0.5076,0.5076 0 1 0 0,1.0152 H 10.20562 v 5.886 H 8.6396203 a 0.4752,0.4752 0 0 0 -0.5184,0.5076 0.486,0.486 0 0 0 0.5184,0.5184 H 12.79762 a 0.486,0.486 0 0 0 0.5292,-0.5184 v -2.5596 c 0,-0.3024 -0.1404,-0.5076 -0.5292,-0.5076 z"
 id="path112"
 inkscape:connector-curvature="0"
 style="fill:#6dbd46;stroke-width:1.08000004" />
<path
 class="cls-4"
 d="m 19.86082,48.693224 h -3.0996 a 1.08,1.08 0 0 0 -1.08,1.0152 v 5.886 a 1.08,1.08 0 0 0 1.08,1.08 h 3.0996 a 1.08,1.08 0 0 0 1.08,-1.08 v -5.8752 a 1.08,1.08 0 0 0 -1.08,-1.026 z m 0,6.9012 h -3.0996 v -5.8752 h 3.0996 z"
 id="path114"
 inkscape:connector-curvature="0"
 style="fill:#6dbd46;stroke-width:1.08000004" />
<path
 class="cls-4"
 d="m 27.97162,53.034824 c -0.3888,0 -0.5292,0.2052 -0.5292,0.5076 v 2.052 h -1.0368 v -6.9012 h -2.592 a 0.5076,0.5076 0 1 0 0,1.0152 h 1.512 v 5.886 h -1.512 a 0.4752,0.4752 0 0 0 -0.5184,0.5076 0.486,0.486 0 0 0 0.5184,0.5184 h 4.158 a 0.486,0.486 0 0 0 0.5292,-0.5184 v -2.5596 c 0,-0.3024 -0.1404,-0.5076 -0.5292,-0.5076 z"
 id="path116"
 inkscape:connector-curvature="0"
 style="fill:#6dbd46;stroke-width:1.08000004" />
<path
 class="cls-4"
 d="m 35.04562,48.693224 h -3.1104 a 1.08,1.08 0 0 0 -1.08,1.0152 v 5.886 a 1.08,1.08 0 0 0 1.08,1.08 h 3.1104 a 1.08,1.08 0 0 0 1.08,-1.08 v -5.8752 a 1.08,1.08 0 0 0 -1.08,-1.026 z m 0,6.9012 h -3.1104 v -5.8752 h 3.1104 z"
 id="path118"
 inkscape:connector-curvature="0"
 style="fill:#6dbd46;stroke-width:1.08000004" />
<path
 class="cls-4"
 d="m 42.60562,48.693224 h -3.0888 a 1.08,1.08 0 0 0 -1.08,1.0152 v 5.886 a 1.08,1.08 0 0 0 1.08,1.08 h 3.0888 a 1.08,1.08 0 0 0 1.08,-1.08 v -5.8752 a 1.08,1.08 0 0 0 -1.08,-1.026 z m 0,6.9012 h -3.0888 v -5.8752 h 3.0888 z"
 id="path120"
 inkscape:connector-curvature="0"
 style="fill:#6dbd46;stroke-width:1.08000004" />
<path
 class="cls-4"
 d="m 50.16562,48.693224 h -3.0564 a 1.08,1.08 0 0 0 -1.08,1.0152 v 5.886 a 1.08,1.08 0 0 0 1.08,1.08 h 3.0564 a 1.08,1.08 0 0 0 1.08,-1.08 v -5.8752 a 1.08,1.08 0 0 0 -1.08,-1.026 z m 0,6.9012 h -3.0564 v -5.8752 h 3.0564 z"
 id="path122"
 inkscape:connector-curvature="0"
 style="fill:#6dbd46;stroke-width:1.08000004" />
<path
 class="cls-4"
 d="m 58.31962,53.034824 c -0.3888,0 -0.5292,0.2052 -0.5292,0.5076 v 2.052 h -1.08 v -6.9012 h -2.5488 a 0.5076,0.5076 0 1 0 0,1.0152 h 1.5552 v 5.886 h -1.5552 a 0.4752,0.4752 0 0 0 -0.5292,0.5076 0.486,0.486 0 0 0 0.5292,0.5184 h 4.158 a 0.486,0.486 0 0 0 0.5292,-0.5184 v -2.5596 c -0.0432,-0.3024 -0.1404,-0.5076 -0.5292,-0.5076 z"
 id="path124"
 inkscape:connector-curvature="0"
 style="fill:#6dbd46;stroke-width:1.08000004" />
<path
 class="cls-4"
 d="m 65.37202,55.594424 h -1.0152 v -2.16 c -0.3564,-0.1836 -0.7128,-0.3672 -1.08,-0.5616 v 2.6784 h -1.5228 a 0.4752,0.4752 0 0 0 -0.5292,0.5076 0.486,0.486 0 0 0 0.5292,0.5184 h 4.1472 a 0.486,0.486 0 0 0 0.5292,-0.5184 v -1.728 c -0.3564,-0.1296 -0.702,-0.27 -1.08,-0.4212 z"
 id="path126"
 inkscape:connector-curvature="0"
 style="fill:#6dbd46;stroke-width:1.08000004" />
<path
 class="cls-4"
 d="m 12.26842,60.908024 h -0.5184 c 0.5076,0.4968 1.08,0.972 1.5768,1.4364 v -0.4212 a 1.08,1.08 0 0 0 -1.0584,-1.0152 z"
 id="path128"
 inkscape:connector-curvature="0"
 style="fill:#6dbd46;stroke-width:1.08000004" />
<path
 class="cls-4"
 d="m 19.86082,60.908024 h -3.0996 a 1.08,1.08 0 0 0 -1.08,1.0152 v 2.3004 c 0.3456,0.2484 0.702,0.486 1.08,0.7236 v -3.024 h 3.0996 v 4.8924 l 1.08,0.54 v -5.4 a 1.08,1.08 0 0 0 -1.08,-1.0476 z"
 id="path130"
 inkscape:connector-curvature="0"
 style="fill:#6dbd46;stroke-width:1.08000004" />
<path
 class="cls-4"
 d="m 27.48562,60.908024 h -3.1428 a 1.08,1.08 0 0 0 -1.08,1.0152 v 5.8968 a 0.9936,0.9936 0 0 0 0.3564,0.756 l 0.6588,0.2484 h 3.2076 a 1.0152,1.0152 0 0 0 1.08,-1.0152 v -5.886 a 1.08,1.08 0 0 0 -1.08,-1.0152 z m 0,6.912 h -3.1428 v -5.8968 h 3.1428 z"
 id="path132"
 inkscape:connector-curvature="0"
 style="fill:#6dbd46;stroke-width:1.08000004" />
<path
 class="cls-4"
 d="m 35.56402,65.249624 c -0.3996,0 -0.5292,0.216 -0.5292,0.5076 v 2.0628 h -1.0692 v -6.912 h -2.5596 a 0.5076,0.5076 0 1 0 0,1.0152 h 1.5444 v 5.8968 h -1.5444 a 0.5076,0.5076 0 1 0 0,1.0152 h 4.158 a 0.4752,0.4752 0 0 0 0.5184,-0.5076 v -2.5704 a 0.4536,0.4536 0 0 0 -0.5184,-0.5076 z"
 id="path134"
 inkscape:connector-curvature="0"
 style="fill:#6dbd46;stroke-width:1.08000004" />
<path
 class="cls-4"
 d="m 43.14562,65.249624 a 0.4644,0.4644 0 0 0 -0.5292,0.5076 v 2.0628 h -1.026 v -6.912 h -2.6028 a 0.5076,0.5076 0 1 0 0,1.0152 h 1.5552 v 5.8968 h -1.5552 a 0.5076,0.5076 0 1 0 0,1.0152 h 4.158 a 0.4752,0.4752 0 0 0 0.5292,-0.5076 v -2.5704 a 0.4644,0.4644 0 0 0 -0.5292,-0.5076 z"
 id="path136"
 inkscape:connector-curvature="0"
 style="fill:#6dbd46;stroke-width:1.08000004" />
<path
 class="cls-4"
 d="m 50.72722,65.249624 a 0.4536,0.4536 0 0 0 -0.5184,0.5076 v 2.0628 h -1.026 v -6.912 h -2.6028 a 0.5076,0.5076 0 1 0 0,1.0152 h 1.5444 v 5.8968 h -1.5444 a 0.5076,0.5076 0 1 0 0,1.0152 h 3.9744 l 0.6372,-0.2484 a 0.4644,0.4644 0 0 0 0.0648,-0.2592 v -2.5704 c -0.0108,-0.2916 -0.1296,-0.5076 -0.5292,-0.5076 z"
 id="path138"
 inkscape:connector-curvature="0"
 style="fill:#6dbd46;stroke-width:1.08000004" />
<path
 class="cls-4"
 d="m 57.79042,60.908024 h -3.0996 a 1.08,1.08 0 0 0 -1.08,1.0152 v 5.5944 l 1.08,-0.5184 v -5.076 h 3.0996 v 3.24 l 1.08,-0.7236 v -2.5164 a 1.08,1.08 0 0 0 -1.08,-1.0152 z"
 id="path140"
 inkscape:connector-curvature="0"
 style="fill:#6dbd46;stroke-width:1.08000004" />
<path
 class="cls-4"
 d="m 61.22482,61.923224 v 0.6912 c 0.648,-0.5508 1.296,-1.08 1.9008,-1.7064 h -0.8532 a 1.08,1.08 0 0 0 -1.0476,1.0152 z"
 id="path142"
 inkscape:connector-curvature="0"
 style="fill:#6dbd46;stroke-width:1.08000004" />
<path
 class="cls-2"
 d="m 102.17842,43.854824 v 10.4436 h -2.937602 v -28.08 h 8.164802 a 8.2944,8.2944 0 0 1 3.4668,0.7452 9.0504,9.0504 0 0 1 2.7432,1.9764 9.45,9.45 0 0 1 1.8144,2.7972 8.3268,8.3268 0 0 1 0.6696,3.24 9.2772,9.2772 0 0 1 -1.2096,4.7196 7.1928,7.1928 0 0 1 -3.5964,3.1104 l 2.5056,3.24 c 0.432,0.5292 0.918,1.1664 1.4688,1.9008 l 1.7064,2.2356 1.6848,2.16 1.3824,1.8684 h -3.8448 l -8.1,-10.4436 z m 0,-14.6124 v 11.5128 h 5.2272 a 5.6592,5.6592 0 0 0 2.2356,-0.4428 5.7456,5.7456 0 0 0 1.836,-1.2204 5.94,5.94 0 0 0 1.2312,-1.8036 5.4,5.4 0 0 0 0.4536,-2.16 5.778,5.778 0 0 0 -0.4536,-2.2896 6.0588,6.0588 0 0 0 -1.2312,-1.8576 5.4648,5.4648 0 0 0 -1.836,-1.242 5.67,5.67 0 0 0 -2.2356,-0.54 z"
 id="path144"
 inkscape:connector-curvature="0"
 style="fill:#b7b7b7;stroke-width:1.08000004" />
<path
 class="cls-2"
 d="m 133.37962,26.250824 a 13.4892,13.4892 0 0 1 5.4,1.08 14.1588,14.1588 0 0 1 7.4304,7.56 14.1264,14.1264 0 0 1 0,10.8864 13.8132,13.8132 0 0 1 -7.4304,7.4304 13.6512,13.6512 0 0 1 -5.4,1.08 h -8.802 v -28.08 z m 11.0376,14.04 a 10.5192,10.5192 0 0 0 -0.8748,-4.32 11.5452,11.5452 0 0 0 -2.3652,-3.51 11.0484,11.0484 0 0 0 -3.5316,-2.3436 10.5192,10.5192 0 0 0 -4.32,-0.8748 h -5.7888 v 21.9672 h 5.7888 a 10.692,10.692 0 0 0 4.32,-0.8532 11.178,11.178 0 0 0 3.4884,-2.3112 10.9296,10.9296 0 0 0 2.3652,-3.456 10.53,10.53 0 0 0 0.918,-4.2876 z"
 id="path146"
 inkscape:connector-curvature="0"
 style="fill:#b7b7b7;stroke-width:1.08000004" />
<path
 class="cls-2"
 d="m 156.65362,26.250824 v 28.08 h -3.0456 v -28.08 z"
 id="path148"
 inkscape:connector-curvature="0"
 style="fill:#b7b7b7;stroke-width:1.08000004" />
<path
 class="cls-2"
 d="m 181.34242,29.199224 h -13.122 v 7.2468 h 10.3464 v 2.9916 h -10.3464 v 14.8608 h -3.0348 v -28.08 h 16.2 z"
 id="path150"
 inkscape:connector-curvature="0"
 style="fill:#b7b7b7;stroke-width:1.08000004" />
<path
 class="cls-2"
 d="m 197.70442,54.298424 a 11.286,11.286 0 0 1 -4.428,-0.8748 12.4416,12.4416 0 0 1 -3.6504,-2.3436 10.908,10.908 0 0 1 -2.484,-3.4668 10.1628,10.1628 0 0 1 -0.9072,-4.2444 v -17.4096 h 3.0456 v 17.4096 a 7.1064,7.1064 0 0 0 0.6588,3.0672 7.9488,7.9488 0 0 0 1.836,2.484 8.8128,8.8128 0 0 0 5.9508,2.2896 8.4564,8.4564 0 0 0 3.24,-0.6156 8.0136,8.0136 0 0 0 2.6352,-1.674 7.8516,7.8516 0 0 0 1.7496,-2.484 7.4304,7.4304 0 0 0 0.6372,-3.0672 v -17.4096 h 3.0456 v 17.4096 a 10.1628,10.1628 0 0 1 -0.9072,4.2444 11.2752,11.2752 0 0 1 -2.4408,3.4668 11.772,11.772 0 0 1 -3.5964,2.3436 11.2212,11.2212 0 0 1 -4.3848,0.8748 z"
 id="path152"
 inkscape:connector-curvature="0"
 style="fill:#b7b7b7;stroke-width:1.08000004" />
<path
 class="cls-2"
 d="m 237.21082,26.250824 v 2.9484 h -10.5516 v 25.056 h -3.0456 v -25.056 h -10.6596 v -2.9484 z"
 id="path154"
 inkscape:connector-curvature="0"
 style="fill:#b7b7b7;stroke-width:1.08000004" />
<path
 class="cls-2"
 d="m 241.32562,54.298424 v -28.08 h 16.524 v 2.9808 h -13.4892 v 7.1388 h 9.0612 v 2.9916 h -9.0612 v 11.88 h 14.3964 v 3.0888 z m 4.212,-33.1668 5.8104,-4.32 h 2.16 c 0.7236,0 1.4472,0 2.16,0 l -5.7672,4.32 -5.7564,4.32 z"
 id="path156"
 inkscape:connector-curvature="0"
 style="fill:#b7b7b7;stroke-width:1.08000004" />
<path
 class="cls-2"
 d="m 92.36122,29.426024 a 17.8524,17.8524 0 0 0 -3.8124,-5.7024 18.1548,18.1548 0 0 0 -5.67,-3.8448 17.1612,17.1612 0 0 0 -6.912,-1.404 17.55,17.55 0 0 0 -7.0092,1.404 17.9604,17.9604 0 0 0 -9.5256,9.5472 17.8308,17.8308 0 0 0 0,13.9212 17.9604,17.9604 0 0 0 9.5256,9.5472 17.55,17.55 0 0 0 7.0092,1.404 17.1612,17.1612 0 0 0 6.912,-1.404 18.1548,18.1548 0 0 0 5.67,-3.8448 18.09,18.09 0 0 0 3.8124,-19.6236 z m -2.808,12.7332 a 14.6448,14.6448 0 0 1 -3.1428,4.698 15.12,15.12 0 0 1 -4.7088,3.1644 14.04,14.04 0 0 1 -5.7348,1.1772 14.5044,14.5044 0 0 1 -5.832,-1.1772 14.9148,14.9148 0 0 1 -4.7196,-3.1644 15.12,15.12 0 0 1 -3.24,-4.698 14.9256,14.9256 0 0 1 0,-11.5668 15.2496,15.2496 0 0 1 3.24,-4.698 14.9148,14.9148 0 0 1 4.7196,-3.1752 14.5044,14.5044 0 0 1 5.832,-1.1772 14.04,14.04 0 0 1 5.7348,1.1772 15.12,15.12 0 0 1 4.7088,3.24 14.7636,14.7636 0 0 1 3.1428,4.698 15.0552,15.0552 0 0 1 0,11.5668 z"
 id="path158"
 inkscape:connector-curvature="0"
 style="fill:#b7b7b7;stroke-width:1.08000004" />
</svg>
